<svg width="562" height="562" viewBox="0 0 562 562" fill="none" xmlns="http://www.w3.org/2000/svg">
<circle cx="281" cy="281" r="281" fill="#FF6AC1"/>
<path d="M476.937 362.641C476.937 441.016 405.747 476.938 282.306 476.938C158.212 476.938 87.675 441.016 87.675 362.641C87.675 247.691 476.937 247.691 476.937 362.641Z" fill="#E7A74F"/>
<path d="M475.631 308.431C475.631 386.806 405.094 422.728 281.653 422.728C158.866 422.728 87.675 386.806 87.675 308.431C88.3281 194.134 475.631 194.134 475.631 308.431Z" fill="#BA8443"/>
<path d="M87.675 310.391C87.675 277.734 126.209 232.669 282.306 232.669C438.403 232.669 476.937 278.387 476.937 310.391C476.937 369.825 422.075 412.931 282.306 412.931C142.537 412.931 87.675 369.825 87.675 310.391" fill="#826046"/>
<path d="M91.5938 276.428C91.5938 243.772 129.475 198.706 282.306 198.706C435.138 198.706 473.019 244.425 473.019 276.428C473.019 335.862 419.463 378.969 282.306 378.969C145.15 378.969 91.5938 335.862 91.5938 276.428Z" fill="#68472C"/>
<path d="M92.8999 233.975C102.044 214.381 126.209 213.075 204.584 246.384C282.959 279.694 297.981 297.328 288.837 317.575C271.856 353.497 225.484 380.275 154.947 350.231C84.4093 320.187 75.2656 270.55 92.8999 233.975" fill="#EF4D3C"/>
<path d="M99.4312 211.769C108.575 192.175 132.741 190.869 211.116 224.178C289.491 257.487 304.512 275.122 295.369 295.369C278.387 331.291 232.016 358.069 161.478 328.025C90.9406 297.981 81.7968 247.691 99.4312 211.769" fill="#D33B23"/>
<path d="M263.366 297.328C258.141 276.428 276.428 261.406 360.681 243.119C444.934 224.831 467.794 230.056 473.019 251.609C482.816 290.144 463.222 337.822 387.459 354.15C312.35 370.478 272.509 335.862 263.366 297.328" fill="#EF4D3C"/>
<path d="M254.875 276.428C249.65 255.528 267.937 240.506 352.191 222.219C436.444 203.931 459.303 209.156 464.528 230.709C474.325 269.244 454.731 316.922 378.969 333.25C303.859 349.578 264.672 314.963 254.875 276.428" fill="#D33B23"/>
<path d="M135.353 273.816L265.978 399.216L393.991 273.816H135.353Z" fill="#FFE62E"/>
<path d="M468.447 241.159C468.447 241.159 474.325 263.366 468.447 269.897C463.222 275.775 446.894 269.244 439.709 274.469C433.178 279.041 435.138 296.675 427.3 300.594C420.116 304.513 406.4 293.409 398.563 296.675C391.378 299.288 388.766 316.922 380.928 319.534C373.091 321.494 361.334 308.431 353.497 309.738C345.659 311.044 340.434 328.025 331.944 329.331C324.106 330.638 314.309 315.616 305.819 316.269C297.981 316.922 290.144 332.597 281.653 332.597C273.163 332.597 265.978 316.269 257.488 316.269C248.997 315.616 239.853 330.638 231.363 329.331C222.872 328.025 217.647 311.697 209.809 309.738C201.319 307.778 190.216 321.494 182.378 319.534C174.541 316.922 171.928 299.941 164.744 296.675C156.906 293.409 142.538 304.513 136.006 300.594C128.169 296.675 130.128 279.041 123.597 274.469C116.413 269.244 100.084 275.775 94.8594 269.897C88.9813 263.366 94.8594 241.159 94.8594 241.159H468.447Z" fill="#8CC63E"/>
<path d="M476.937 224.831C476.937 267.284 390.072 288.184 282.306 288.184C174.541 288.184 87.675 267.284 87.675 224.831C87.675 147.762 174.541 85.0625 282.306 85.0625C390.072 85.0625 476.937 147.762 476.937 224.831Z" fill="#E7A74F"/>
<path d="M178.459 166.05L168.009 175.847L158.213 166.05L168.009 156.253L178.459 166.05Z" fill="#FFC17A"/>
<path d="M226.791 150.375L216.994 160.172L207.197 150.375L216.994 140.578L226.791 150.375Z" fill="#FFC17A"/>
<path d="M254.875 194.787L244.425 204.584L234.628 194.787L244.425 184.991L254.875 194.787Z" fill="#FFC17A"/>
<path d="M288.838 159.519L282.306 166.05L275.775 159.519L282.306 152.987L288.838 159.519Z" fill="#FFC17A"/>
<path d="M410.972 184.991L404.441 191.522L397.909 184.991L404.441 178.459L410.972 184.991Z" fill="#FFC17A"/>
<path d="M451.466 191.522L444.934 198.053L438.403 191.522L444.934 184.991L451.466 191.522Z" fill="#FFC17A"/>
<path d="M375.05 143.844L368.519 150.375L361.987 143.844L368.519 137.312L375.05 143.844Z" fill="#FFC17A"/>
<path d="M175.847 135.353L169.316 141.884L162.784 135.353L169.316 128.822L175.847 135.353Z" fill="#FFC17A"/>
<path d="M140.578 166.05L134.047 172.581L127.516 166.05L134.047 159.519L140.578 166.05Z" fill="#FFC17A"/>
<path d="M181.725 209.809L175.194 216.341L168.009 209.809L175.194 203.278L181.725 209.809Z" fill="#FFC17A"/>
<path d="M258.141 109.228L251.609 115.759L244.425 109.228L251.609 102.697L258.141 109.228Z" fill="#FFC17A"/>
<path d="M320.188 102.697L313.656 109.228L307.125 102.697L313.656 96.1656L320.188 102.697Z" fill="#FFC17A"/>
<path d="M216.994 115.759L210.463 122.291L203.931 115.759L210.463 109.228L216.994 115.759Z" fill="#FFC17A"/>
<path d="M404.441 131.434L397.909 137.966L391.378 131.434L397.909 124.903L404.441 131.434Z" fill="#FFC17A"/>
<path d="M333.25 213.728L323.453 223.525L313.656 213.728L323.453 203.931L333.25 213.728Z" fill="#FFC17A"/>
<path d="M317.575 163.438L307.778 173.234L297.981 163.438L307.778 153.641L317.575 163.438Z" fill="#FFC17A"/>
<path d="M354.15 125.556L344.353 135.353L334.556 125.556L344.353 115.759L354.15 125.556Z" fill="#FFC17A"/>
<path d="M382.887 168.009L373.091 177.806L362.641 168.009L373.091 158.212L382.887 168.009Z" fill="#FFC17A"/>
<path d="M424.687 153.641L414.891 163.438L404.441 153.641L414.891 143.844L424.687 153.641Z" fill="#FFC17A"/>
<path d="M392.684 211.116L382.888 220.912L373.091 211.116L382.888 201.319L392.684 211.116Z" fill="#FFC17A"/>
<path d="M153.641 194.134L143.844 203.931L134.047 194.134L143.844 184.337L153.641 194.134Z" fill="#FFC17A"/>
</svg>
